<svg viewBox="0 0 18 18" fill="none" xmlns="http://www.w3.org/2000/svg">
  <path d="M12.5 11.4545H11.71L11.43 11.1845C12.41 10.0445 13 8.56453 13 6.95453C13 3.36453 10.09 0.454529 6.5 0.454529C2.91 0.454529 0 3.36453 0 6.95453C0 10.5445 2.91 13.4545 6.5 13.4545C8.11 13.4545 9.59 12.8645 10.73 11.8845L11 12.1645V12.9545L16 17.9445L17.49 16.4545L12.5 11.4545ZM6.5 11.4545C4.01 11.4545 2 9.44453 2 6.95453C2 4.46453 4.01 2.45453 6.5 2.45453C8.99 2.45453 11 4.46453 11 6.95453C11 9.44453 8.99 11.4545 6.5 11.4545Z" fill="inherit"/>
</svg>
