<svg xmlns="http://www.w3.org/2000/svg" viewBox="0 0 400 59.392">
  <path d="M24.152 1.292c-1.308 1.927-1.559 2.283-1.669 2.375-.055.045-.196.266-.314.489a4 4 0 0 1-.369.584c-.183.208-1.921 2.72-3.753 5.423a152 152 0 0 1-1.427 2.083c-.4.525-1.486 2.073-2.287 3.259-.504.748-.998 1.448-1.098 1.556s-.279.377-.398.599a4 4 0 0 1-.371.58c-.187.213-1.974 2.798-3.753 5.427C8 24.721 7.365 25.622 7.302 25.67c-.973.737-.889 3.347.135 4.163 1.742 1.391 3.368.874 5.063-1.609.596-.873 1.16-1.675 1.254-1.781.093-.106.464-.643.824-1.193s1.371-2.012 2.247-3.25a201 201 0 0 0 2.424-3.5c.457-.687.907-1.341 1-1.453.396-.478.548-.691 1.282-1.797a187 187 0 0 1 2.87-4.16c.934-1.322.583-1.566 3.106 2.16.682 1.008 1.279 1.871 1.325 1.917.092.09 1.026 1.442 2.188 3.166.401.596.805 1.168.897 1.272.091.103.258.328.37.5.47.72 1.499 2.227 2.317 3.395.482.688 1.46 2.113 2.174 3.167s1.338 1.954 1.387 2c.048.045.264.345.479.666 1.216 1.814 4.054 1.76 4.933-.093.604-1.274-.339-4.086-1.758-5.24-.056-.046-.199-.266-.317-.49a4.4 4.4 0 0 0-.361-.583c-.206-.247-2.584-3.667-3.252-4.677-.304-.458-.63-.946-.726-1.083l-3.005-4.334-1.66-2.416a1513 1513 0 0 1-2.568-3.75 336 336 0 0 0-1.777-2.584c-.385-.55-1.008-1.45-1.384-2-.377-.55-.725-1.037-.773-1.083a5 5 0 0 1-.379-.542c-.413-.649-.486-.607-1.465.834m-.402 19.835a495 495 0 0 0-3.128 4.602c-.113.171-.28.396-.372.5s-.573.788-1.069 1.521-1.24 1.821-1.655 2.417c-.414.595-1.166 1.683-1.672 2.416-.505.734-1.607 2.314-2.448 3.512-.841 1.199-1.626 2.36-1.744 2.58a4 4 0 0 1-.397.607c-.316.358-.496.607-1.245 1.718-1.157 1.717-2.096 3.076-2.187 3.167-.046.045-.309.42-.583.832-.275.412-1.451 2.113-2.613 3.781-1.163 1.668-2.206 3.204-2.318 3.414s-.287.475-.387.588c-2.755 3.118-2.448 6.26.636 6.515 1.484.123 1.979-.239 3.599-2.631a110 110 0 0 1 1.5-2.16c.32-.443.675-.945.787-1.115.113-.169 1.109-1.612 2.215-3.205 1.105-1.594 2.094-3.055 2.197-3.247s.269-.441.369-.555c.413-.467.564-.674.765-1.051.116-.217.282-.475.369-.573.148-.167 1.319-1.852 3.77-5.427.597-.871 1.699-2.446 2.449-3.5s1.459-2.099 1.577-2.323.28-.485.361-.583c.674-.812.807-.994.807-1.107 0-.071.094-.229.21-.35s.503-.653.863-1.182.709-.942.776-.917c.155.058 1.455 1.837 1.982 2.712.221.367.443.704.494.75s.318.421.592.834c.274.412.537.787.583.833s.459.646.917 1.333c.458.688.871 1.288.917 1.334.046.045.309.42.583.833.275.412.558.825.628.917.07.091.95 1.366 1.955 2.833s1.894 2.746 1.975 2.844a4.4 4.4 0 0 1 .362.58c.119.221.298.495.398.608.312.353.49.604 1.343 1.888a64 64 0 0 0 1.333 1.936c.278.379.6.829.714 1 .538.804 1.751 2.579 3.031 4.437.773 1.122 1.62 2.357 1.883 2.743 1.407 2.071 4.117 2.052 5.128-.037.65-1.341.376-2.198-1.567-4.918a135 135 0 0 1-2.014-2.918c-.549-.823-1.036-1.534-1.083-1.58-.047-.045-.461-.645-.919-1.333-.459-.687-.871-1.288-.917-1.333-.047-.046-.309-.421-.584-.834a32 32 0 0 0-.627-.916c-.071-.092-.951-1.367-1.956-2.834-1.005-1.466-1.893-2.746-1.974-2.843a4.3 4.3 0 0 1-.361-.584c-.118-.223-.26-.444-.315-.489-.055-.046-.434-.571-.842-1.167s-.991-1.441-1.294-1.877c-.506-.727-1.572-2.285-3.851-5.623a69 69 0 0 0-.983-1.417 98 98 0 0 1-1.203-1.75 225 225 0 0 0-1.719-2.5 435 435 0 0 1-1.593-2.291c-1.15-1.668-.857-1.738-2.448.585" fill="#9bc444"/>
  <path d="M84.333 29.667v29.666h8V44.917c0-7.93.049-14.417.108-14.417.06 0 .79.581 1.624 1.292.834.71 1.657 1.404 1.828 1.541.171.138.396.326.501.418s.6.504 1.101.916a38 38 0 0 1 1.179 1c.147.137.593.512.992.833.398.321 1.074.883 1.503 1.25s1.141.967 1.584 1.333c.444.367 1.117.929 1.497 1.25s1.023.859 1.429 1.196c1.074.891 4.226 3.531 6.235 5.221.653.55 1.559 1.309 2.012 1.686 3.449 2.869 5.3 4.415 6.663 5.564.38.321 1.015.846 1.411 1.167.395.32.898.745 1.117.942.219.198.884.76 1.479 1.25s1.36 1.135 1.701 1.433l.62.541h5.972c3.335 0 5.948-.064 5.917-.145s-.993-.924-2.139-1.874a435 435 0 0 1-2.5-2.085 392 392 0 0 0-3.566-2.949 342 342 0 0 1-1.917-1.587l-2.005-1.667c-.406-.335-1.049-.872-1.429-1.193s-1.052-.883-1.495-1.25c-.442-.366-1.119-.929-1.503-1.25-.385-.321-1.024-.846-1.422-1.166a26 26 0 0 1-.99-.834 16 16 0 0 0-.923-.744c-.36-.271-.777-.609-.927-.75-.149-.141-1.089-.93-2.089-1.754-1-.823-1.855-1.54-1.901-1.592s-.683-.581-1.417-1.174c-.733-.594-1.52-1.238-1.75-1.432a375 375 0 0 0-3.649-3.054 353 353 0 0 0-3.8-3.126c-1.21-.984-2.199-1.828-2.198-1.874s.718-.645 1.592-1.333 1.789-1.413 2.031-1.613 1.341-1.081 2.441-1.959a308 308 0 0 0 2.583-2.078c.558-.461 2.281-1.852 3.483-2.814.312-.249.844-.678 1.184-.953a382 382 0 0 1 3.25-2.605 151 151 0 0 0 2.018-1.627c.598-.502.614-.515 2.798-2.251 1.74-1.384 2.185-1.744 2.494-2.019.105-.092.902-.724 1.773-1.404s1.659-1.316 1.75-1.415c.092-.098.467-.402.834-.676.707-.527 1.166-.893 1.477-1.175.104-.095.487-.395.851-.667.363-.272.779-.607.924-.744.145-.138.841-.699 1.547-1.248S135.5.197 135.5.127 132.848 0 129.606 0c-6.29 0-6.282-.001-6.939.846-.072.092-1.926 1.681-4.909 4.206-.453.384-1.172.998-1.596 1.365-.425.366-1.212 1.041-1.75 1.5-.537.458-1.324 1.133-1.747 1.5-.423.366-1.209 1.041-1.747 1.5a76 76 0 0 0-1.157 1c-.099.091-.629.54-1.179.998-.549.457-1.081.907-1.182 1s-.584.506-1.072.918a200 200 0 0 0-1.657 1.417c-.422.367-1.177 1.015-1.678 1.44L99.5 20.664a855 855 0 0 1-3.309 2.81c-.399.335-.844.722-.988.859-.935.892-1.44 1.167-2.143 1.167h-.727V0h-8zm65.667 0v29.666h46.833V52.5h-38.666V0H150zm57.833 0v29.666h47.334V52.5H216V39.75c0-7.013.04-12.75.088-12.75s.859.45 1.802 1 1.803 1 1.912 1 .198.062.198.137.356.311.792.523c.435.213 1.214.639 1.73.947l.938.56h28.707V25H216V6.167h39.167V0h-47.334zM266.9.875a296 296 0 0 0 1.858 4.042 639 639 0 0 1 2.434 5.222 466 466 0 0 0 1.974 4.278c.817 1.738 2.561 5.493 3.135 6.75.189.412.761 1.637 1.271 2.721s.928 1.997.928 2.028.366.831.812 1.778a344 344 0 0 1 2.351 5.056c.206.458.621 1.358.923 2s.774 1.654 1.047 2.25c.479 1.04 1.21 2.62 2.199 4.75.256.55.914 1.975 1.463 3.167a685 685 0 0 0 2.785 6c.303.641.738 1.579.966 2.083.446.986 1.314 2.855 2.222 4.787.311.662.565 1.281.565 1.375 0 .114 1.841.171 5.494.171h5.494l.574-1.208c.315-.665.814-1.733 1.108-2.375s.834-1.804 1.199-2.583a948 948 0 0 0 3.179-6.834c.432-.944 1.218-2.646 2.231-4.833.319-.687.643-1.37.72-1.518s.551-1.159 1.052-2.25 1.22-2.634 1.597-3.43.686-1.481.686-1.521.531-1.189 1.18-2.552a322 322 0 0 0 1.52-3.229c.188-.413.586-1.275.886-1.917a1346 1346 0 0 0 2.168-4.666c.34-.734.863-1.859 1.162-2.5.299-.642.733-1.585.965-2.096.231-.51.736-1.598 1.122-2.416.74-1.571 1.24-2.641 2.253-4.822L329.625 6c1.346-2.889 2.708-5.875 2.708-5.935 0-.036-1.985-.065-4.412-.065h-4.412l-.775 1.625c-.427.894-.961 2.038-1.188 2.542-.384.854-.618 1.358-2.114 4.541-.312.665-.844 1.809-1.182 2.542s-.879 1.896-1.202 2.583a477 477 0 0 0-2.095 4.5c-.315.688-.876 1.888-1.247 2.667-.37.779-.86 1.829-1.088 2.333-.438.967-1.443 3.13-2.362 5.084-.302.641-.755 1.616-1.008 2.166-.252.55-.861 1.847-1.353 2.881-.492 1.035-.895 1.913-.895 1.951s-.488 1.087-1.083 2.329c-.596 1.242-1.084 2.287-1.084 2.321s-.493 1.103-1.096 2.374a511 511 0 0 0-1.402 2.978c-2.953 6.423-2.938 6.395-3.13 5.916-.16-.399-.731-1.644-1.987-4.333-.321-.687-.81-1.738-1.085-2.333-.276-.596-.747-1.609-1.048-2.25-.301-.642-.736-1.58-.966-2.084-.775-1.692-2.11-4.571-3.285-7.083-.918-1.962-3.735-8.034-4.369-9.417a486 486 0 0 0-1.079-2.333l-1.067-2.292-.971-2.083-1.146-2.458c-.363-.78-.827-1.792-1.031-2.25-.42-.943-1.078-2.351-2.318-4.961-.469-.987-.853-1.83-.853-1.873s-.401-.923-.892-1.956a158 158 0 0 1-1.279-2.752L275.441 0h-8.937zm75.813 21.417c.047 17.709.104 22.446.277 23.041l.46 1.584c.684 2.353 2.13 4.677 4.148 6.666 2.994 2.95 5.703 4.355 10.485 5.44 1.718.39 25.228.326 26.99-.073 4.419-1 7.201-2.534 10.283-5.67 1.303-1.326 3.477-4.684 3.477-5.37 0-.061.109-.346.241-.635.87-1.895.829-.738.883-24.9L400.007 0H392v20.969c0 14.084-.058 21.284-.177 21.927-.158.853-1.19 3.389-1.467 3.604-.059.046-.327.408-.596.804-.463.683-2.131 2.268-2.732 2.598-.153.084-.316.205-.361.268-.417.576-3.702 1.86-5.506 2.153-1.444.234-18.044.234-19.489 0-1.931-.314-4.864-1.491-5.636-2.264-.125-.124-.292-.226-.372-.226-.195 0-2.831-2.627-2.831-2.822 0-.084-.096-.253-.214-.374-.261-.269-.98-1.756-1.396-2.887-.291-.79-.309-1.938-.352-22.292L350.826 0h-8.172z" fill="#0c4464"/>
</svg>
